name rise43.5482peak65.4966fall89.1036.mot
datacolumns 19
datarows 11
range 11.00162200000000 11.01828800000000
endheader
time	ground_force1_vx	ground_force1_vy	ground_force1_vz	ground_force1_px	ground_force1_py	ground_force1_pz	ground_force2_vx	ground_force2_vy	ground_force2_vz	ground_force2_px	ground_force2_py	ground_force2_pz	ground_torque1_x	ground_torque1_y	ground_torque1_z	ground_torque2_x	ground_torque2_y	ground_torque2_z	
11.00162200000000	-5.86574100000000	40.82662600000000	-6.96765700000000	0.30782600000000	0.00000000000000	0.11484000000000	-55.96247400000000	810.00780999999995	-48.50932200000000	0.10798600000000	0.00000000000000	-0.06997000000000	0.00000000000000	-4.08714400000000	0.00000000000000	0.00000000000000	-16.82780200000000	0.00000000000000	
11.00328300000000	-6.34934800000000	47.82865200000000	-7.78545400000000	0.31349100000000	0.00000000000000	0.11530800000000	-56.93405800000000	807.23624600000005	-48.18328200000000	0.10704300000000	0.00000000000000	-0.06986500000000	0.00000000000000	-4.65289200000000	0.00000000000000	0.00000000000000	-16.80919200000000	0.00000000000000	
11.00495500000000	-6.69732500000000	54.91463400000000	-8.51029200000000	0.31860100000000	0.00000000000000	0.11574500000000	-57.91832400000000	804.30107699999996	-47.84181300000000	0.10610000000000	0.00000000000000	-0.06975800000000	0.00000000000000	-5.18054400000000	0.00000000000000	0.00000000000000	-16.79237900000000	0.00000000000000	
11.00662500000000	-6.89265100000000	61.99365700000000	-9.12348000000000	0.32324300000000	0.00000000000000	0.11615400000000	-58.91375200000000	801.19880000000001	-47.48455000000000	0.10515700000000	0.00000000000000	-0.06965000000000	0.00000000000000	-5.65769100000000	0.00000000000000	0.00000000000000	-16.77715700000000	0.00000000000000	
11.00829000000000	-6.92539600000000	68.99741800000000	-9.61291100000000	0.32748400000000	0.00000000000000	0.11653900000000	-59.91868900000000	797.92597000000001	-47.11113900000000	0.10421500000000	0.00000000000000	-0.06954000000000	0.00000000000000	-6.07559600000000	0.00000000000000	0.00000000000000	-16.76329900000000	0.00000000000000	
11.00995500000000	-6.79256300000000	75.88231399999999	-9.97308600000000	0.33138100000000	0.00000000000000	0.11690200000000	-60.93134900000000	794.47921199999996	-46.72124200000000	0.10327300000000	0.00000000000000	-0.06942900000000	0.00000000000000	-6.42936200000000	0.00000000000000	0.00000000000000	-16.75055500000000	0.00000000000000	
11.01163100000000	-6.49739800000000	82.62915200000000	-10.20461000000000	0.33497900000000	0.00000000000000	0.11724700000000	-61.94982000000000	790.85523300000000	-46.31454000000000	0.10233100000000	0.00000000000000	-0.06931700000000	0.00000000000000	-6.71773800000000	0.00000000000000	0.00000000000000	-16.73866000000000	0.00000000000000	
11.01328800000000	-6.04831200000000	89.24089900000000	-10.31325900000000	0.33831700000000	0.00000000000000	0.11757500000000	-62.97206400000000	787.05083500000001	-45.89073200000000	0.10139200000000	0.00000000000000	-0.06920400000000	0.00000000000000	-6.94267200000000	0.00000000000000	0.00000000000000	-16.72732700000000	0.00000000000000	
11.01495800000000	-5.45755900000000	95.73899100000000	-10.30879300000000	0.34142600000000	0.00000000000000	0.11788800000000	-63.99592500000000	783.06293300000004	-45.44954100000000	0.10045400000000	0.00000000000000	-0.06908800000000	0.00000000000000	-7.10866800000000	0.00000000000000	0.00000000000000	-16.71625300000000	0.00000000000000	
11.01662400000000	-4.73984300000000	102.15876500000000	-10.20364500000000	0.34433200000000	0.00000000000000	0.11818700000000	-65.01912900000001	778.88856499999997	-44.99071700000000	0.09951900000000	0.00000000000000	-0.06897200000000	0.00000000000000	-7.22204700000000	0.00000000000000	0.00000000000000	-16.70511700000000	0.00000000000000	
11.01828800000000	-3.91096300000000	108.54454400000000	-10.01162000000000	0.34705800000000	0.00000000000000	0.11847300000000	-66.03929500000000	774.52490999999998	-44.51403700000000	0.09858700000000	0.00000000000000	-0.06885400000000	0.00000000000000	-7.29018600000000	0.00000000000000	0.00000000000000	-16.69358500000000	0.00000000000000	
